<svg viewBox="0 0 24 24" fill="currentColor" aria-hidden="true">
  <path d="M12 0C5.37 0 0 5.37 0 12a12 12 0 0 0 8.21 11.39c.6.11.82-.26.82-.58v-2.02c-3.34.73-4.04-1.61-4.04-1.61-.55-1.38-1.34-1.75-1.34-1.75-1.09-.74.08-.72.08-.72 1.2.08 1.84 1.23 1.84 1.23 1.07 1.84 2.8 1.31 3.48 1 .11-.77.42-1.31.76-1.61-2.67-.3-5.47-1.34-5.47-5.93 0-1.31.47-2.38 1.23-3.22-.12-.3-.53-1.52.12-3.17 0 0 1-.32 3.3 1.23a11.5 11.5 0 0 1 6 0c2.3-1.55 3.3-1.23 3.3-1.23.65 1.65.24 2.87.12 3.17.77.84 1.23 1.91 1.23 3.22 0 4.6-2.8 5.62-5.48 5.92.43.37.81 1.1.81 2.22v3.29c0 .32.22.7.83.58A12 12 0 0 0 24 12c0-6.63-5.37-12-12-12z"/>
</svg>