<?xml version="1.0" encoding="UTF-8" standalone="no"?>
<svg
   viewBox="0 0 320 100.00001"
   version="1.1"
   id="svg6"
   sodipodi:docname="logo.svg"
   role="img"
   aria-label="Pi-hole In One"
   inkscape:version="1.4.2 (f4327f4, 2025-05-13)"
   inkscape:export-filename="..\..\.github\assets\logo.png"
   inkscape:export-xdpi="153.60001"
   inkscape:export-ydpi="153.60001"
   xmlns:inkscape="http://www.inkscape.org/namespaces/inkscape"
   xmlns:sodipodi="http://sodipodi.sourceforge.net/DTD/sodipodi-0.dtd"
   xmlns="http://www.w3.org/2000/svg"
   xmlns:svg="http://www.w3.org/2000/svg">
  <sodipodi:namedview
     id="namedview6"
     pagecolor="#505050"
     bordercolor="#ffffff"
     borderopacity="1"
     inkscape:showpageshadow="0"
     inkscape:pageopacity="0"
     inkscape:pagecheckerboard="1"
     inkscape:deskcolor="#505050"
     showguides="true"
     inkscape:zoom="2.1959332"
     inkscape:cx="83.563562"
     inkscape:cy="55.784939"
     inkscape:window-width="1920"
     inkscape:window-height="1009"
     inkscape:window-x="-8"
     inkscape:window-y="-8"
     inkscape:window-maximized="1"
     inkscape:current-layer="svg6" />
  <defs
     id="defs2">
    <inkscape:path-effect
       effect="fillet_chamfer"
       id="path-effect9"
       is_visible="true"
       lpeversion="1"
       nodesatellites_param="F,0,0,1,0,18.886584,0,1 @ F,0,0,1,0,18.886584,0,1 @ F,0,0,1,0,42.510343,0,1"
       radius="0"
       unit="px"
       method="auto"
       mode="F"
       chamfer_steps="1"
       flexible="false"
       use_knot_distance="true"
       apply_no_radius="true"
       apply_with_radius="true"
       only_selected="false"
       hide_knots="false" />
    <inkscape:path-effect
       effect="fillet_chamfer"
       id="path-effect8"
       is_visible="true"
       lpeversion="1"
       nodesatellites_param="F,0,0,1,0,0,0,1 @ F,0,0,1,0,0,0,1 @ F,0,0,1,0,0,0,1 @ F,0,0,1,0,3.7614127,0,1"
       radius="0"
       unit="px"
       method="auto"
       mode="F"
       chamfer_steps="1"
       flexible="false"
       use_knot_distance="true"
       apply_no_radius="true"
       apply_with_radius="true"
       only_selected="false"
       hide_knots="false" />
    <linearGradient
       id="New_Gradient_Swatch_1"
       x1="2.71"
       x2="69.769997"
       y1="20.040001"
       y2="20.040001"
       gradientUnits="userSpaceOnUse"
       gradientTransform="matrix(1.4721835,0,0,1.4721835,81.318043,8.0313393)">
      <stop
         offset="0"
         stop-color="#12b212"
         id="stop1" />
      <stop
         offset="1"
         stop-color="#0f0"
         id="stop2" />
    </linearGradient>
    <style
       id="style2">.cls-2{fill:#980200}.cls-3{fill:red}</style>
  </defs>
  <g
     id="text1"
     style="fill:currentColor;font-weight:bold;font-size:53.3333px;line-height:1;font-family:inter;-inkscape-font-specification:'inter Bold';stroke-width:5;stroke-linejoin:round;stroke-miterlimit:0;paint-order:markers fill stroke"
     aria-label="Pi-hole&#10;In One">
    <path
       d="m 147.96884,16.818332 q 0,2.604165 -0.91146,5.104164 -0.91145,2.473956 -2.60416,4.166664 -2.31771,2.291665 -5.18229,3.463539 -2.83854,1.171875 -7.08333,1.171875 h -6.22395 v 12.6302 h -10 V 4.5787559 h 16.45833 q 3.69791,0 6.22395,0.6510413 2.55208,0.6249996 4.50521,1.9010405 2.34375,1.5364575 3.5677,3.9322893 1.25,2.395832 1.25,5.755205 z m -10.33853,0.234375 q 0,-1.640624 -0.88542,-2.812499 -0.88542,-1.197915 -2.05729,-1.666665 -1.5625,-0.625 -3.04687,-0.677083 -1.48438,-0.07813 -3.95833,-0.07813 h -1.71875 v 11.614576 h 2.86458 q 2.55208,0 4.1927,-0.312499 1.66667,-0.3125 2.78646,-1.25 0.96354,-0.833333 1.38021,-1.979165 0.44271,-1.171875 0.44271,-2.83854 z m 26.27602,26.302067 h -9.37499 V 14.11 h 9.37499 z m 0.26042,-33.4114379 h -9.89583 V 2.8339653 h 9.89583 z M 191.06778,29.865199 H 171.198 v -7.499995 h 19.86978 z m 36.66664,13.489575 h -9.42708 V 28.849575 q 0,-1.770832 -0.18229,-3.515623 -0.18229,-1.770832 -0.625,-2.604165 -0.52083,-0.963541 -1.53646,-1.406249 -0.98958,-0.442708 -2.78645,-0.442708 -1.27604,0 -2.60417,0.416666 -1.30208,0.416666 -2.83854,1.328124 v 20.729154 h -9.37499 V 2.8339653 h 9.37499 V 17.339165 q 2.5,-1.953124 4.79167,-2.99479 2.3177,-1.041666 5.1302,-1.041666 4.73958,0 7.39583,2.760415 2.68229,2.760415 2.68229,8.255203 z m 38.51561,-14.609366 q 0,7.213538 -4.21875,11.380202 -4.19271,4.140622 -11.79687,4.140622 -7.60416,0 -11.82291,-4.140622 -4.1927,-4.166664 -4.1927,-11.380202 0,-7.26562 4.21874,-11.406243 4.24479,-4.140623 11.79687,-4.140623 7.65625,0 11.82291,4.166665 4.19271,4.166664 4.19271,11.380201 z m -11.53645,7.109371 q 0.91145,-1.119791 1.35416,-2.68229 0.46875,-1.588541 0.46875,-4.374998 0,-2.578123 -0.46875,-4.322914 -0.46875,-1.74479 -1.30208,-2.786456 -0.83333,-1.067708 -2.00521,-1.510416 -1.17187,-0.442708 -2.52604,-0.442708 -1.35416,0 -2.42187,0.364583 -1.04167,0.364583 -2.00521,1.458332 -0.85937,1.015625 -1.38021,2.786457 -0.49479,1.770832 -0.49479,4.453122 0,2.395832 0.44271,4.166665 0.44271,1.74479 1.30208,2.812498 0.83334,1.015624 1.97917,1.484374 1.17187,0.46875 2.65625,0.46875 1.27604,0 2.42187,-0.416667 1.17188,-0.442708 1.97917,-1.458332 z m 27.63019,7.499995 h -9.37499 V 2.8339653 h 9.37499 z M 320,30.464157 h -21.45832 q 0.20833,3.437498 2.60416,5.260414 2.42188,1.822915 7.10937,1.822915 2.96875,0 5.75521,-1.067707 2.78645,-1.067708 4.40104,-2.291666 h 1.04166 v 7.526037 q -3.17708,1.276041 -5.98958,1.848958 -2.81249,0.572916 -6.22395,0.572916 -8.80208,0 -13.48958,-3.958331 -4.68749,-3.958331 -4.68749,-11.276035 0,-7.239579 4.42708,-11.458326 4.45312,-4.24479 12.18749,-4.24479 7.13541,0 10.72916,3.61979 Q 320,20.41208 320,27.182909 Z m -9.32291,-5.494788 q -0.0781,-2.942707 -1.45834,-4.427081 -1.3802,-1.484374 -4.29687,-1.484374 -2.70833,0 -4.45312,1.406249 -1.74479,1.406249 -1.95312,4.505206 z"
       id="path1" />
    <path
       d="M 136.92718,96.688076 H 114.21886 V 89.81308 h 6.35417 V 64.787053 h -6.35417 v -6.874996 h 22.70832 v 6.874996 h -6.35416 V 89.81308 h 6.35416 z m 37.00519,0 h -9.42708 v -14.5052 q 0,-1.770832 -0.18229,-3.515623 -0.18229,-1.770832 -0.625,-2.604165 -0.52083,-0.963541 -1.53646,-1.406249 -0.98958,-0.442708 -2.78645,-0.442708 -1.27604,0 -2.60417,0.416666 -1.30208,0.416667 -2.83854,1.328125 v 20.729154 h -9.37499 V 67.443302 h 9.37499 v 3.229165 q 2.5,-1.953124 4.79167,-2.99479 2.3177,-1.041666 5.1302,-1.041666 4.73958,0 7.39583,2.760415 2.68229,2.760415 2.68229,8.255203 z m 65.07809,-19.374988 q 0,9.270827 -5.3125,14.739574 -5.3125,5.442705 -14.68749,5.442705 -9.34895,0 -14.66145,-5.442705 -5.3125,-5.468747 -5.3125,-14.739574 0,-9.348953 5.3125,-14.765617 5.3125,-5.442705 14.66145,-5.442705 9.32291,0 14.66145,5.442705 5.33854,5.416664 5.33854,14.765617 z m -13.2552,9.817702 q 1.45833,-1.770832 2.16145,-4.166664 0.70313,-2.421874 0.70313,-5.67708 0,-3.489581 -0.80729,-5.937497 -0.80729,-2.447915 -2.10938,-3.958331 -1.32812,-1.562499 -3.07291,-2.265623 -1.71875,-0.703125 -3.59375,-0.703125 -1.90104,0 -3.59375,0.677083 -1.66666,0.677083 -3.07291,2.239582 -1.30208,1.458333 -2.13542,4.036456 -0.80729,2.552082 -0.80729,5.937497 0,3.463539 0.78125,5.911454 0.80729,2.421874 2.10937,3.958331 1.30209,1.536458 3.04688,2.265624 1.74479,0.729166 3.67187,0.729166 1.92708,0 3.67187,-0.729166 1.74479,-0.755208 3.04688,-2.317707 z m 49.73954,9.557286 h -9.42707 v -14.5052 q 0,-1.770832 -0.18229,-3.515623 -0.1823,-1.770832 -0.625,-2.604165 -0.52084,-0.963541 -1.53646,-1.406249 -0.98958,-0.442708 -2.78646,-0.442708 -1.27604,0 -2.60416,0.416666 -1.30209,0.416667 -2.83854,1.328125 v 20.729154 h -9.375 V 67.443302 h 9.375 v 3.229165 q 2.5,-1.953124 4.79166,-2.99479 2.31771,-1.041666 5.13021,-1.041666 4.73958,0 7.39582,2.760415 2.68229,2.760415 2.68229,8.255203 z m 37.42187,-12.890617 h -21.45832 q 0.20833,3.437498 2.60416,5.260413 2.42188,1.822916 7.10938,1.822916 2.96874,0 5.7552,-1.067708 2.78646,-1.067708 4.40104,-2.291665 h 1.04167 v 7.526037 q -3.17709,1.276041 -5.98958,1.848957 -2.8125,0.572917 -6.22396,0.572917 -8.80208,0 -13.48957,-3.958331 -4.6875,-3.958331 -4.6875,-11.276035 0,-7.239579 4.42708,-11.458327 4.45312,-4.244789 12.18749,-4.244789 7.13541,0 10.72916,3.61979 3.59375,3.593747 3.59375,10.364577 z m -9.32291,-5.494789 q -0.0781,-2.942706 -1.45833,-4.42708 -1.38021,-1.484374 -4.29688,-1.484374 -2.70833,0 -4.45312,1.406249 -1.74479,1.406249 -1.95312,4.505205 z"
       id="path2" />
  </g>
  <path
     id="rect8"
     style="fill:#ff0000;fill-opacity:1;stroke-width:5.92727;stroke-linejoin:round;stroke-miterlimit:0;paint-order:markers fill stroke"
     d="m 49.999997,0 c -6.91744,0 -13.8342,2.6497 -19.1347,7.95032 L 7.9507523,30.86206 c -10.601003,10.60124 -10.601003,27.67115 0,38.2724 L 30.865297,92.04907 c 10.601,10.60124 27.6684,10.60124 38.2694,0 l 22.91454,-22.91461 c 10.601013,-10.60125 10.601013,-27.67115 0,-38.2724 L 69.134697,7.95032 C 63.834197,2.6497 56.917437,0 49.999997,0 Z m 0,27.94101 a 22.058621,22.058689 0 0 1 22.05862,22.05868 22.058621,22.058689 0 0 1 -22.05862,22.05869 22.058621,22.058689 0 0 1 -22.05862,-22.05869 22.058621,22.058689 0 0 1 22.05862,-22.05868 z" />
  <ellipse
     style="fill:#43d021;fill-opacity:1;stroke:none;stroke-width:5.75681;stroke-linecap:butt;stroke-linejoin:round;stroke-miterlimit:0;stroke-dasharray:none;stroke-opacity:0;paint-order:markers stroke fill"
     id="path18"
     ry="9.7865334"
     rx="19.573067"
     cy="83.986542"
     cx="19.573065" />
  <path
     id="rect22"
     style="fill:#ffffff;stroke-width:4.66451;stroke-linejoin:round;stroke-miterlimit:0;stroke-opacity:0;paint-order:markers stroke fill"
     d="m 18.139857,24.60597 h 2.86641 c 1.91688,0 3.46007,1.54319 3.46007,3.46006 v 52.58596 c 0,1.91687 -1.54319,3.46006 -3.46007,3.46006 h -2.86641 c -1.91687,0 -3.46006,-1.54319 -3.46006,-3.46006 V 28.06603 c 0,-1.91687 1.54319,-3.46006 3.46006,-3.46006 z"
     sodipodi:nodetypes="sssssssss" />
  <path
     style="fill:#43d021;fill-opacity:1;stroke:none;stroke-width:4.89327;stroke-linecap:butt;stroke-linejoin:round;stroke-miterlimit:0;stroke-dasharray:none;stroke-opacity:0;paint-order:markers stroke fill"
     d="M 24.466337,28.06603 V 47.6391 l 24.46633,-9.78654 z"
     id="path22"
     sodipodi:nodetypes="cccc" />
</svg>
