<?xml version="1.0" encoding="UTF-8" standalone="no"?>
<svg
   viewBox="0 0 320 100.00001"
   version="1.1"
   id="svg6"
   sodipodi0:docname="logo.svg"
   role="img"
   aria-label="Pi-hole In One"
   inkscape:version="1.4.2 (f4327f4, 2025-05-13)"
   inkscape:export-filename="..\..\.github\assets\logo.png"
   inkscape:export-xdpi="153.60001"
   inkscape:export-ydpi="153.60001"
   sodipodi:docname="logo.svg"
   xmlns:inkscape="http://www.inkscape.org/namespaces/inkscape"
   xmlns:sodipodi="http://sodipodi.sourceforge.net/DTD/sodipodi-0.dtd"
   xmlns="http://www.w3.org/2000/svg"
   xmlns:svg="http://www.w3.org/2000/svg"
   xmlns:sodipodi0="http://sodipodi.sourceforge.net/DTD/sodipodi-0.0.dtd">
  <sodipodi:namedview
     id="namedview1"
     pagecolor="#505050"
     bordercolor="#ffffff"
     borderopacity="1"
     inkscape:showpageshadow="0"
     inkscape:pageopacity="0"
     inkscape:pagecheckerboard="1"
     inkscape:deskcolor="#505050"
     inkscape:zoom="2.96"
     inkscape:cx="201.68919"
     inkscape:cy="11.317568"
     inkscape:window-width="1920"
     inkscape:window-height="1009"
     inkscape:window-x="-8"
     inkscape:window-y="-8"
     inkscape:window-maximized="1"
     inkscape:current-layer="svg6" />
  <sodipodi0:namedview
     id="namedview6"
     pagecolor="#505050"
     bordercolor="#ffffff"
     borderopacity="1"
     inkscape:showpageshadow="0"
     inkscape:pageopacity="0"
     inkscape:pagecheckerboard="1"
     inkscape:deskcolor="#505050"
     showguides="true"
     inkscape:zoom="12.422074"
     inkscape:cx="9.418717"
     inkscape:cy="40.613186"
     inkscape:window-width="1920"
     inkscape:window-height="1009"
     inkscape:window-x="-8"
     inkscape:window-y="-8"
     inkscape:window-maximized="1"
     inkscape:current-layer="svg6" />
  <defs
     id="defs2">
    <inkscape:path-effect
       effect="fillet_chamfer"
       id="path-effect9"
       is_visible="true"
       lpeversion="1"
       nodesatellites_param="F,0,0,1,0,18.886584,0,1 @ F,0,0,1,0,18.886584,0,1 @ F,0,0,1,0,42.510343,0,1"
       radius="0"
       unit="px"
       method="auto"
       mode="F"
       chamfer_steps="1"
       flexible="false"
       use_knot_distance="true"
       apply_no_radius="true"
       apply_with_radius="true"
       only_selected="false"
       hide_knots="false" />
    <inkscape:path-effect
       effect="fillet_chamfer"
       id="path-effect8"
       is_visible="true"
       lpeversion="1"
       nodesatellites_param="F,0,0,1,0,0,0,1 @ F,0,0,1,0,0,0,1 @ F,0,0,1,0,0,0,1 @ F,0,0,1,0,3.7614127,0,1"
       radius="0"
       unit="px"
       method="auto"
       mode="F"
       chamfer_steps="1"
       flexible="false"
       use_knot_distance="true"
       apply_no_radius="true"
       apply_with_radius="true"
       only_selected="false"
       hide_knots="false" />
    <linearGradient
       id="New_Gradient_Swatch_1"
       x1="2.71"
       x2="69.769997"
       y1="20.040001"
       y2="20.040001"
       gradientUnits="userSpaceOnUse"
       gradientTransform="matrix(1.4721835,0,0,1.4721835,81.318043,8.0313393)">
      <stop
         offset="0"
         stop-color="#12b212"
         id="stop1" />
      <stop
         offset="1"
         stop-color="#0f0"
         id="stop2" />
    </linearGradient>
    <style
       id="style2"></style>
  </defs>
  <g
     id="text1"
     style="fill:currentColor;font-weight:bold;font-size:53.3333px;line-height:1;font-family:inter;-inkscape-font-specification:'inter Bold';stroke-width:5;stroke-linejoin:round;stroke-miterlimit:0;paint-order:markers fill stroke"
     aria-label="Pi-holeIn One">
    <path
       d="m 148.61179,16.054706 q 0,2.604165 -0.91146,5.104163 -0.91146,2.473957 -2.60417,4.166665 -2.3177,2.291665 -5.18228,3.463539 -2.83854,1.171875 -7.08333,1.171875 h -6.22396 v 12.6302 H 116.6066 V 3.8151298 h 16.45832 q 3.69792,0 6.22396,0.6510413 2.55208,0.6249996 4.5052,1.9010405 2.34375,1.5364575 3.56771,3.9322894 1.25,2.395832 1.25,5.755205 z m -10.33854,0.234375 q 0,-1.640624 -0.88541,-2.812499 -0.88542,-1.197916 -2.0573,-1.666665 -1.56249,-0.625 -3.04687,-0.677083 -1.48437,-0.07813 -3.95833,-0.07813 h -1.71875 v 11.614576 h 2.86458 q 2.55208,0 4.19271,-0.3125 1.66666,-0.312499 2.78646,-1.249999 0.96354,-0.833333 1.3802,-1.979165 0.44271,-1.171875 0.44271,-2.83854 z m 26.27603,26.302067 h -9.375 V 13.346374 h 9.375 z M 164.8097,9.17971 h -9.89583 V 2.0703392 h 9.89583 z m 26.90102,19.921863 h -19.86978 v -7.499995 h 19.86978 z m 36.66665,13.489575 h -9.42708 V 28.085949 q 0,-1.770833 -0.18229,-3.515623 -0.1823,-1.770832 -0.625,-2.604165 -0.52084,-0.963541 -1.53646,-1.406249 -0.98958,-0.442709 -2.78646,-0.442709 -1.27604,0 -2.60416,0.416667 -1.30209,0.416666 -2.83854,1.328124 v 20.729154 h -9.375 V 2.0703392 h 9.375 V 16.575539 q 2.5,-1.953124 4.79166,-2.99479 2.31771,-1.041666 5.13021,-1.041666 4.73958,0 7.39583,2.760415 2.68229,2.760415 2.68229,8.255203 z m 38.5156,-14.609366 q 0,7.213537 -4.21875,11.380202 -4.1927,4.140622 -11.79686,4.140622 -7.60417,0 -11.82291,-4.140622 -4.19271,-4.166665 -4.19271,-11.380202 0,-7.265621 4.21875,-11.406243 4.24479,-4.140623 11.79687,-4.140623 7.65624,0 11.82291,4.166665 4.1927,4.166664 4.1927,11.380201 z m -11.53645,7.109371 q 0.91146,-1.119791 1.35417,-2.68229 0.46875,-1.588541 0.46875,-4.374998 0,-2.578123 -0.46875,-4.322914 -0.46875,-1.74479 -1.30209,-2.786456 -0.83333,-1.067708 -2.0052,-1.510416 -1.17188,-0.442708 -2.52604,-0.442708 -1.35417,0 -2.42188,0.364583 -1.04166,0.364583 -2.0052,1.458332 -0.85938,1.015625 -1.38021,2.786457 -0.49479,1.770832 -0.49479,4.453122 0,2.395832 0.44271,4.166665 0.4427,1.74479 1.30208,2.812498 0.83333,1.015624 1.97916,1.484374 1.17188,0.46875 2.65625,0.46875 1.27604,0 2.42188,-0.416667 1.17187,-0.442708 1.97916,-1.458332 z m 27.63019,7.499995 h -9.37499 V 2.0703392 h 9.37499 z m 37.65623,-12.890617 h -21.45832 q 0.20833,3.437498 2.60417,5.260414 2.42187,1.822915 7.10937,1.822915 2.96875,0 5.7552,-1.067708 2.78646,-1.067707 4.40104,-2.291665 h 1.04167 v 7.526037 q -3.17708,1.276041 -5.98958,1.848958 -2.8125,0.572916 -6.22396,0.572916 -8.80207,0 -13.48957,-3.958331 -4.6875,-3.958331 -4.6875,-11.276035 0,-7.239579 4.42708,-11.458327 4.45312,-4.244789 12.18749,-4.244789 7.13542,0 10.72916,3.61979 3.59375,3.593748 3.59375,10.364577 z m -9.32291,-5.494788 q -0.0781,-2.942707 -1.45833,-4.427081 -1.38021,-1.484374 -4.29687,-1.484374 -2.70834,0 -4.45313,1.406249 -1.74479,1.406249 -1.95312,4.505206 z"
       id="path1" />
    <path
       d="m 137.57013,95.924454 h -22.70832 v -6.874996 h 6.35416 V 64.023431 h -6.35416 v -6.874996 h 22.70832 v 6.874996 h -6.35417 v 25.026027 h 6.35417 z m 37.00518,0 h -9.42707 v -14.5052 q 0,-1.770832 -0.1823,-3.515623 -0.18229,-1.770832 -0.625,-2.604165 -0.52083,-0.963541 -1.53645,-1.406249 -0.98959,-0.442708 -2.78646,-0.442708 -1.27604,0 -2.60416,0.416666 -1.30209,0.416667 -2.83854,1.328124 v 20.729155 h -9.375 V 66.679679 h 9.375 v 3.229165 q 2.49999,-1.953124 4.79166,-2.99479 2.31771,-1.041666 5.1302,-1.041666 4.73959,0 7.39583,2.760415 2.68229,2.760415 2.68229,8.255204 z M 239.6534,76.549465 q 0,9.270828 -5.3125,14.739575 -5.31249,5.442705 -14.68749,5.442705 -9.34895,0 -14.66145,-5.442705 -5.31249,-5.468747 -5.31249,-14.739575 0,-9.348952 5.31249,-14.765616 5.3125,-5.442705 14.66145,-5.442705 9.32291,0 14.66145,5.442705 5.33854,5.416664 5.33854,14.765616 z m -13.2552,9.817703 q 1.45833,-1.770833 2.16146,-4.166664 0.70312,-2.421874 0.70312,-5.67708 0,-3.489582 -0.80729,-5.937497 -0.80729,-2.447915 -2.10937,-3.958331 -1.32813,-1.562499 -3.07292,-2.265623 -1.71875,-0.703125 -3.59374,-0.703125 -1.90105,0 -3.59375,0.677083 -1.66667,0.677083 -3.07292,2.239582 -1.30208,1.458332 -2.13541,4.036456 -0.80729,2.552082 -0.80729,5.937496 0,3.46354 0.78125,5.911455 0.80729,2.421874 2.10937,3.958331 1.30208,1.536457 3.04687,2.265624 1.74479,0.729166 3.67188,0.729166 1.92708,0 3.67187,-0.729166 1.74479,-0.755208 3.04687,-2.317707 z m 49.73955,9.557286 h -9.42708 v -14.5052 q 0,-1.770832 -0.18229,-3.515623 -0.18229,-1.770832 -0.625,-2.604165 -0.52083,-0.963541 -1.53646,-1.406249 -0.98958,-0.442708 -2.78645,-0.442708 -1.27604,0 -2.60417,0.416666 -1.30208,0.416667 -2.83854,1.328124 v 20.729155 h -9.37499 V 66.679679 h 9.37499 v 3.229165 q 2.5,-1.953124 4.79166,-2.99479 2.31771,-1.041666 5.13021,-1.041666 4.73958,0 7.39583,2.760415 2.68229,2.760415 2.68229,8.255204 z m 37.42186,-12.890618 h -21.45832 q 0.20834,3.437498 2.60417,5.260414 2.42187,1.822916 7.10937,1.822916 2.96875,0 5.7552,-1.067708 2.78646,-1.067708 4.40104,-2.291665 h 1.04167 v 7.526037 q -3.17708,1.276041 -5.98958,1.848957 -2.8125,0.572916 -6.22395,0.572916 -8.80208,0 -13.48958,-3.958331 -4.6875,-3.958331 -4.6875,-11.276035 0,-7.239579 4.42708,-11.458326 4.45313,-4.244789 12.1875,-4.244789 7.13541,0 10.72916,3.619789 3.59374,3.593748 3.59374,10.364577 z m -9.32291,-5.494788 q -0.0781,-2.942707 -1.45833,-4.427081 -1.38021,-1.484374 -4.29687,-1.484374 -2.70833,0 -4.45312,1.406249 -1.74479,1.40625 -1.95313,4.505206 z"
       id="path2" />
  </g>
  <path
     id="rect8"
     style="fill:#ff0000;fill-opacity:1;stroke-width:5.92727;stroke-linejoin:round;stroke-miterlimit:0;paint-order:markers fill stroke"
     d="M 49.999998,0 C 43.082556,0 36.165795,2.649699 30.865293,7.950319 L 7.9507522,30.862059 c -10.601003,10.601246 -10.601003,27.671151 0,38.272401 L 30.865293,92.04907 c 10.601007,10.60124 27.668405,10.60124 38.269407,0 L 92.04924,69.13446 c 10.60101,-10.60125 10.60101,-27.671152 0,-38.272401 L 69.1347,7.950319 C 63.8342,2.649697 56.917442,0 49.999998,0 Z m 0,27.941006 A 22.058621,22.058689 0 0 1 72.05862,49.999695 22.058621,22.058689 0 0 1 49.999998,72.05839 22.058621,22.058689 0 0 1 27.941377,49.999695 22.058621,22.058689 0 0 1 49.999998,27.941006 Z" />
  <ellipse
     style="fill:#43d021;fill-opacity:1;stroke:none;stroke-width:5.88236;stroke-linecap:butt;stroke-linejoin:round;stroke-miterlimit:0;stroke-dasharray:none;stroke-opacity:0;paint-order:markers stroke fill"
     id="path18"
     ry="10"
     rx="20"
     cy="90"
     cx="20" />
  <path
     id="rect22"
     style="fill:currentColor;stroke-width:4.76625;stroke-linejoin:round;stroke-miterlimit:0;stroke-opacity:0;paint-order:markers stroke fill"
     d="m 18.535534,20.128235 h 2.928932 C 23.423152,20.128235 25,21.705083 25,23.663769 v 62.928932 c 0,1.958686 -1.576848,3.535534 -3.535534,3.535534 H 18.535534 C 16.576848,90.128235 15,88.551387 15,86.592701 V 23.663769 c 0,-1.958686 1.576848,-3.535534 3.535534,-3.535534 z" />
  <path
     style="fill:#43d021;fill-opacity:1;stroke:none;stroke-width:5;stroke-linecap:butt;stroke-linejoin:round;stroke-miterlimit:0;stroke-dasharray:none;stroke-opacity:0;paint-order:markers stroke fill"
     d="m 25,23.800699 v 20 l 25,-10 z"
     id="path22"
     sodipodi0:nodetypes="cccc" />
</svg>
